<svg id="Layer_1" enable-background="new 0 0 512 512" height="55" viewBox="0 0 512 512" width="55" xmlns="http://www.w3.org/2000/svg"><g><path d="m400.91 464.551c60.691-44.593 100.092-116.467 100.092-197.553 0-135.311-109.691-245.002-245.002-245.002s-245.002 109.691-245.002 245.002c0 82.02 40.311 154.618 102.194 199.086z" fill="#73c3f9"/><path d="m402.901 70.908c-18.211 3.753-32.901 17.13-38.536 34.578-1.106 3.425-4.522 5.448-8.099 5.04-12.147-1.384-23.923 4.55-30.163 14.789-2.122 3.483-6.603 4.571-10.171 2.593-4.228-2.344-9.239-3.444-14.547-2.802-10.863 1.315-19.59 10.135-20.798 21.011-1.605 14.445 9.66 26.674 23.78 26.674h177.855c-16.955-40.669-44.551-75.793-79.321-101.883z" fill="#9bd8f9"/><path d="m19.627 331.651c14.981 54.888 48.567 102.098 93.565 134.433l287.718-1.533c43.946-32.29 76.724-78.886 91.469-132.923-13.385-11.597-29.878-18.443-47.723-18.443-19.678 0-37.701 8.343-51.736 22.189-2.681 2.645-7.171 2.19-9.185-.992-14.787-23.365-38.318-38.488-64.837-38.488-22.876 0-43.531 11.252-58.267 29.339-2.386 2.93-6.864 2.93-9.251 0-14.733-18.081-35.37-29.339-58.24-29.339-26.519 0-50.05 15.123-64.836 38.488-2.014 3.183-6.504 3.638-9.186.992-14.035-13.846-32.057-22.189-51.735-22.189-17.857-.001-34.363 6.855-47.756 18.466z" fill="#4fabf7"/><path d="m150.415 488.136c12.886 6.164 26.398 11.226 40.41 15.083v-44.17c0-36.079 29.352-65.431 65.431-65.431s65.431 29.352 65.431 65.431v44.031c13.829-3.84 27.168-8.856 39.897-14.944v-208.456h-211.169z" fill="#ffc839"/><path d="m150.415 488.136c12.886 6.164 26.398 11.226 40.41 15.083v-44.17c0-23.693 12.659-44.484 31.567-55.967-.738-1.598-2.037-2.911-3.717-3.626-12.977-5.523-11.017-18.719-9.81-23.517.322-1.278.278-2.62-.092-3.884l-12.721-43.519c-.296-1.013-.818-1.95-1.507-2.75-5.545-6.436-2.704-12.029-.587-14.735 1.029-1.315 1.612-2.921 1.612-4.591v-9.122c0-1.971-.81-3.847-2.204-5.24-2.352-2.351-2.447-5.048-1.974-7.128.416-1.826.103-3.711-.814-5.29h-40.165v208.456z" fill="#ffb332"/><path d="m111.831 465.091c6.744 4.917 13.745 9.5 20.986 13.72v-179.435h-20.986z" fill="#ffdd40"/><path d="m132.816 478.812c6.795 3.96 13.796 7.601 20.986 10.906v-190.342h-20.986z" fill="#ffe98d"/><path d="m360.32 488.727c7.194-3.391 14.196-7.12 20.986-11.17v-178.181h-20.986z" fill="#ffdd40"/><path d="m381.306 477.557c7.243-4.32 14.251-8.993 20.986-14.014v-164.167h-20.986z" fill="#ffe98d"/><path d="m413.89 281.53h-315.78c-6.266 0-11.346-5.08-11.346-11.346v-7.667h338.472v7.667c0 6.267-5.08 11.346-11.346 11.346z" fill="#ffdd40"/><path d="m86.764 270.184c0 6.266 5.08 11.346 11.346 11.346h94.726c.122-1.243-.148-2.54-.856-3.683-2.477-3.999-1.016-8.094.728-10.904.84-1.354 1.028-2.956.628-4.425h-106.572z" fill="#ffc839"/><path d="m86.764 234.348h338.472v29.018h-338.472z" fill="#ffc839"/><path d="m86.764 263.366h106.733c-.128-1.121-.581-2.208-1.359-3.103-5.073-5.829-3.068-11.761-.511-15.696 1.616-2.488.985-5.873-1.448-7.571-1.204-.84-2.21-1.728-3.069-2.649h-100.346z" fill="#ffb332"/><path d="m315.327 455.177c-2.014-30.778-27.806-55.34-59.071-55.34-31.265 0-57.057 24.562-59.071 55.34z" fill="#0e62a8"/><path d="m197.044 504.841c18.886 4.667 38.628 7.159 58.956 7.159 20.511 0 40.428-2.535 59.469-7.284v-41.819h-118.425z" fill="#167cc1"/><path d="m197.044 504.841c18.886 4.667 38.628 7.159 58.956 7.159.086 0 .171-.003.257-.003v-49.1h-59.213z" fill="#0e62a8"/><g fill="#167cc1"><path d="m176.237 350.335v18.304c0 3.035 2.483 5.518 5.518 5.518h27.634c3.035 0 5.518-2.483 5.518-5.518v-18.304z"/><path d="m236.921 350.335v18.304c0 3.035 2.483 5.518 5.518 5.518h27.635c3.035 0 5.518-2.483 5.518-5.518v-18.304z"/><path d="m297.605 350.335v18.304c0 3.035 2.483 5.518 5.518 5.518h27.634c3.035 0 5.518-2.483 5.518-5.518v-18.304z"/></g><g><path d="m316.941 309.32h-121.369c-4.292 0-7.772-3.48-7.772-7.772 0-4.293 3.48-7.772 7.772-7.772h121.368c4.292 0 7.772 3.48 7.772 7.772.001 4.292-3.479 7.772-7.771 7.772z" fill="#ffdd40"/></g><path d="m195.572 326.888c-10.635 0-19.335 8.701-19.335 19.335v5.148h38.671v-5.148c0-10.635-8.701-19.335-19.336-19.335z" fill="#1e92d3"/><path d="m256.257 326.888c-10.635 0-19.336 8.701-19.336 19.335v5.148h38.671v-5.148c0-10.635-8.701-19.335-19.335-19.335z" fill="#1e92d3"/><path d="m316.941 326.888c-10.635 0-19.335 8.701-19.335 19.335v5.148h38.671v-5.148c-.001-10.635-8.702-19.335-19.336-19.335z" fill="#1e92d3"/><path d="m240.248 474.055h-19.424c-2.443 0-4.423 1.98-4.423 4.423v30.32c9.261 1.505 18.693 2.496 28.271 2.932v-33.251c-.001-2.444-1.981-4.424-4.424-4.424z" fill="#167cc1"/><path d="m291.689 474.055h-19.424c-2.443 0-4.423 1.98-4.423 4.423v33.232c9.579-.456 19.011-1.472 28.271-2.997v-30.234c0-2.444-1.981-4.424-4.424-4.424z" fill="#1e92d3"/><g><path d="m256 109.982c-4.292 0-7.772-3.48-7.772-7.772v-75.609c0-4.292 3.48-7.772 7.772-7.772 4.293 0 7.772 3.48 7.772 7.772v75.609c0 4.292-3.48 7.772-7.772 7.772z" fill="#bec8f7"/></g><path d="m326.323 30.121c-10.604-1.029-11.683-7.028-24.26-7.028-13.757 0-13.757 7.177-27.515 7.177-12.269 0-13.595-5.71-23.499-6.944-2.126-.265-4.012 1.393-4.012 3.535v39.891c0 1.845 1.418 3.364 3.255 3.543 10.602 1.03 11.681 7.028 24.256 7.028 13.758 0 13.758-7.178 27.515-7.178 12.271 0 13.597 5.71 23.502 6.944 2.126.265 4.013-1.393 4.013-3.535v-39.891c0-1.845-1.418-3.364-3.255-3.542z" fill="#ff4155"/><g><path d="m286.308 59.215v-25.122c0-3.05 1.163-5.835 3.055-7.958-3.829 1.957-7.234 4.135-14.814 4.135-12.269 0-13.595-5.71-23.499-6.944-2.126-.265-4.012 1.393-4.012 3.535v39.891c0 1.845 1.418 3.364 3.255 3.543 10.602 1.03 11.681 7.028 24.256 7.028 11.097 0 13.247-4.668 20.882-6.474-5.221-1.3-9.123-6.027-9.123-11.634z" fill="#e80054"/></g><g><path d="m79.951 239.954h352.098l-176.049-116.192z" fill="#ffb332"/></g><path d="m190.179 236.997c-33.639-23.478 71.751-79.861 92.045-90.346 1.467-.758 2.52-2.108 2.897-3.67l-29.121-19.22-176.049 116.193h112.317c-.341-1.16-1.034-2.221-2.089-2.957z" fill="#ff9100"/><path d="m453.591 228.407-191.278-126.243c-3.83-2.528-8.796-2.528-12.626 0l-191.278 126.242c-5.283 3.487-6.739 10.595-3.252 15.878 3.486 5.283 10.595 6.739 15.878 3.252l184.965-122.077 184.966 122.078c5.282 3.486 12.391 2.03 15.878-3.252 3.486-5.283 2.03-12.392-3.253-15.878z" fill="#ffe98d"/><path d="m262.313 102.164c-3.83-2.528-8.796-2.528-12.626 0l-191.278 126.242c-5.283 3.487-6.738 10.595-3.252 15.878 3.487 5.283 10.596 6.739 15.878 3.252l184.965-122.077 28.596 18.873c.444-.809.698-1.721.685-2.677-.14-9.914 6.25-13.096 10.671-14.112 1.021-.235 1.912-.752 2.626-1.445z" fill="#ffdd40"/><path d="m256 96.491c-6.07 0-11.036 4.966-11.036 11.036v27.589c0 6.07 4.966 11.036 11.036 11.036s11.036-4.966 11.036-11.036v-27.589c0-6.07-4.967-11.036-11.036-11.036z" fill="#fcf2c8"/><path d="m256 125.099c-6.07 0-11.036-4.966-11.036-11.036v21.053c0 6.07 4.966 11.036 11.036 11.036s11.036-4.966 11.036-11.036v-21.053c0 6.069-4.966 11.036-11.036 11.036z" fill="#ffe98d"/><ellipse cx="256" cy="15.05" fill="#e9efff" rx="15.05" ry="15.05" transform="matrix(.993 -.122 .122 .993 .072 31.277)"/><path d="m157.425 281.53h-49.216c-5.397 0-9.772 4.375-9.772 9.772s4.375 9.772 9.772 9.772h49.216c5.397 0 9.772-4.375 9.772-9.772s-4.375-9.772-9.772-9.772z" fill="#fcf2c8"/><path d="m405.914 281.53h-49.216c-5.397 0-9.772 4.375-9.772 9.772s4.375 9.772 9.772 9.772h49.216c5.397 0 9.772-4.375 9.772-9.772s-4.375-9.772-9.772-9.772z" fill="#fcf2c8"/><path d="m126.436 291.302c0-5.397 4.375-9.772 9.772-9.772h-28c-5.397 0-9.772 4.375-9.772 9.772s4.375 9.772 9.772 9.772h28c-5.397 0-9.772-4.375-9.772-9.772z" fill="#ffe98d"/><path d="m374.925 291.302c0-5.397 4.375-9.772 9.772-9.772h-28c-5.397 0-9.772 4.375-9.772 9.772s4.375 9.772 9.772 9.772h28c-5.397 0-9.772-4.375-9.772-9.772z" fill="#ffe98d"/><g><path d="m315.469 466.822h-118.425c-4.293 0-7.772-3.48-7.772-7.772 0-4.293 3.48-7.772 7.772-7.772h118.425c4.293 0 7.772 3.48 7.772 7.772s-3.479 7.772-7.772 7.772z" fill="#1e92d3"/></g><g><path d="m256.256 450.354c-4.293 0-7.772-3.48-7.772-7.772v-42.745c0-4.292 3.48-7.772 7.772-7.772s7.772 3.48 7.772 7.772v42.745c.001 4.292-3.479 7.772-7.772 7.772z" fill="#167cc1"/></g><g><path d="m244.612 455.177c-1.989 0-3.978-.759-5.496-2.277l-30.225-30.225c-3.036-3.035-3.036-7.956 0-10.992 3.035-3.035 7.956-3.035 10.992 0l30.225 30.225c3.036 3.035 3.036 7.956 0 10.992-1.518 1.518-3.507 2.277-5.496 2.277z" fill="#167cc1"/></g><g><path d="m267.901 455.177c-1.989 0-3.978-.759-5.496-2.277-3.036-3.035-3.036-7.956 0-10.992l30.225-30.225c3.035-3.035 7.957-3.035 10.992 0 3.036 3.035 3.036 7.957 0 10.992l-30.225 30.225c-1.517 1.518-3.507 2.277-5.496 2.277z" fill="#167cc1"/></g><g><path d="m272.725 466.822h-32.936c-4.293 0-7.772-3.48-7.772-7.772 0-13.366 10.874-24.241 24.241-24.241 13.366 0 24.241 10.874 24.241 24.241-.002 4.292-3.482 7.772-7.774 7.772z" fill="#1e92d3"/></g><path d="m256.256 392.065c-36.935 0-66.985 30.05-66.985 66.985v43.749c5.114 1.444 10.301 2.715 15.545 3.83v-47.579c0-28.364 23.076-51.44 51.44-51.44s51.44 23.076 51.44 51.44v47.468c5.244-1.126 10.431-2.406 15.545-3.862v-43.606c0-36.936-30.049-66.985-66.985-66.985z" fill="#1e92d3"/><path d="m53.686 128.795h122.697c13.399 0 24.743-10.965 24.514-24.361-.238-13.933-12.067-24.051-24.932-23.501-4.021.172-7.43-3.023-7.654-7.041-.719-12.89-10.416-23.213-22.34-25.843-37.18 18.721-68.934 46.627-92.285 80.746z" fill="#9bd8f9"/></g></svg>